<?xml version="1.0" encoding="utf-8"?>
<!-- Generator: Adobe Illustrator 24.0.0, SVG Export Plug-In . SVG Version: 6.00 Build 0)  -->
<svg version="1.1" id="Layer_1" xmlns="http://www.w3.org/2000/svg" xmlns:xlink="http://www.w3.org/1999/xlink" x="0px" y="0px"
	 viewBox="0 0 592.7 343.9" style="enable-background:new 0 0 592.7 343.9;" xml:space="preserve">
<style type="text/css">
	.st0{fill:#FFFFFF;}
</style>
<g>
	<g>
		<path class="st0" d="M267.7,136.8c-3.4-2.7-6.9-5.2-10.6-7.5C212,101.2,167,72.9,122,44.6c-1.9-1.2-3.8-2.3-5.9-3.1
			c-4.7-1.8-7.9,0.4-10.2,4.3c-2.1,3.7-0.8,6.8,2.3,9.3c1.9,1.5,4,2.8,6,4c46.1,28.9,92.2,57.9,138.3,86.8c14.6,9.2,21,22,17.8,37.1
			c-3.3,15.2-13.9,23.1-28.6,26.2c-33.7,7-67.3,14.1-101,21c-14,2.8-27.7,7.6-42.1,7.7c-25,0.1-49.9,0.1-74.9,0.3
			c-5.3,0-7.2-2.2-7.2-7.4c0.2-14.7,0-29.4,0.1-44.1c0-6.3,1.6-7.8,8-7.8c7.8,0,15.6,0.1,23.4,0.1c4.4,0,8.8-0.2,10.9-5
			c2-4.7-0.3-8.1-3.5-11.4c-7.6-7.5-11.3-16.8-11.7-27.5c-0.1-2.6,0.3-4.8,2.4-6.4c2.7,1.6,3.3,4.4,4.2,7
			c3.3,9.6,7.5,18.7,15.2,25.6c8.3,7.5,16.7,14.8,25.3,22c7.6,6.4,16.5,8.5,26.1,5.6c9.8-2.9,19.7-5.6,29.2-9.1
			c25.7-9.4,51.6-17.9,79.5-17.6c4.1,0.1,6.5-2.3,7.4-6.2c1.3-6-2.4-10-10-9.9c-22.2,0.1-43.7,3.9-64.3,12c-5.1,2-9.1,1.4-13.4-2
			c-11.3-8.8-22.8-17.4-34.2-26c-1.9-1.4-4-2.7-6.1-3.8c-3.3-1.6-6.3-0.6-8.6,1.9c-2.5,2.7-3.2,5.8-1.3,9.2c1.2,2.2,3.1,3.7,5,5.1
			c10.5,7.9,21,15.8,32.4,24.4c-6.1,2-11.1,3.4-16,5.2c-7.4,2.7-13.5,0.8-18.9-4.5c-4.2-4.2-8.3-8.6-13.2-12
			c-10.3-7.1-16.3-17.1-19.5-28.9c-3.1-11.3-11.9-17.3-22.3-15.3c-11.1,2.2-17.2,11.4-15.3,23.3c0.9,6.1,1.9,12.1,3.1,18.1
			c1.7,9.2,1.8,9.2-7.2,9.3c-14.5,0.3-23.1,9-23.2,23.5c0,14.9,0,29.8,0,44.7c0,15.8,8.4,24.3,24,24.3c25.3,0.1,50.7,0,76,0
			c2,0,4.1-0.2,6.1-0.6c41.7-8.5,83.3-17.3,125.1-25.5c16.9-3.3,33.1-7.2,45.3-20.2c6.8-6.7,13.3-20.1,13.6-37.7v-0.1
			c-0.2-6.7-3.3-16.2-10.5-23.4"/>
		<path class="st0" d="M325,136.8c3.4-2.7,6.9-5.2,10.6-7.5c45.1-28.2,90.1-56.5,135.1-84.7c1.9-1.2,3.8-2.3,5.9-3.1
			c4.7-1.8,7.9,0.4,10.2,4.3c2.1,3.7,0.8,6.8-2.3,9.3c-1.9,1.5-4,2.8-6,4c-46.1,28.9-92.2,57.9-138.3,86.8
			c-14.6,9.2-21,22-17.8,37.1c3.3,15.2,13.9,23.1,28.6,26.2c33.7,7,67.3,14.1,101,21c14,2.8,27.7,7.6,42.1,7.7
			c25,0.1,49.9,0.1,74.9,0.3c5.3,0,7.2-2.2,7.2-7.4c-0.2-14.7,0-29.4-0.1-44.1c0-6.3-1.6-7.8-8-7.8c-7.8,0-15.6,0.1-23.4,0.1
			c-4.4,0-8.8-0.2-10.9-5c-2-4.7,0.3-8.1,3.5-11.4c7.6-7.5,11.3-16.8,11.7-27.5c0.1-2.6-0.3-4.8-2.4-6.4c-2.7,1.6-3.3,4.4-4.2,7
			c-3.3,9.6-7.5,18.7-15.2,25.6c-8.3,7.5-16.7,14.8-25.3,22c-7.6,6.4-16.5,8.5-26.1,5.6c-9.8-2.9-19.7-5.6-29.2-9.1
			c-25.7-9.4-51.6-17.9-79.5-17.6c-4.1,0.1-6.5-2.3-7.4-6.2c-1.3-6,2.4-10,10-9.9c22.2,0.1,43.7,3.9,64.3,12c5.1,2,9.1,1.4,13.4-2
			c11.3-8.8,22.8-17.4,34.2-26c1.9-1.4,4-2.7,6.1-3.8c3.3-1.6,6.3-0.6,8.6,1.9c2.5,2.7,3.2,5.8,1.3,9.2c-1.2,2.2-3.1,3.7-5,5.1
			c-10.5,7.9-21,15.8-32.4,24.4c6.1,2,11.1,3.4,16,5.2c7.4,2.7,13.5,0.8,18.9-4.5c4.2-4.2,8.3-8.6,13.2-12
			c10.3-7.1,16.3-17.1,19.5-28.9c3.1-11.3,11.9-17.3,22.3-15.3c11.1,2.2,17.2,11.4,15.3,23.3c-0.9,6.1-1.9,12.1-3.1,18.1
			c-1.7,9.2-1.8,9.2,7.2,9.3c14.5,0.3,23.1,9,23.2,23.5c0,14.9,0,29.8,0,44.7c0,15.8-8.4,24.3-24,24.3c-25.3,0.1-50.7,0-76,0
			c-2,0-4.1-0.2-6.1-0.6c-41.7-8.5-83.3-17.3-125.1-25.5c-16.9-3.3-33.1-7.2-45.3-20.2c-6.8-6.7-13.3-20.1-13.6-37.7v-0.1
			c0.2-6.7,3.3-16.2,10.5-23.4"/>
	</g>
	<g>
		<path class="st0" d="M289.7,321.3c0-4.7-0.1-9.3,0-14c0.1-5.1,2.1-7.3,6.4-7.4c4.4-0.1,6.6,2.1,6.6,7.1c0.1,9.8,0.1,19.5,0,29.3
			c-0.1,5.3-2.3,7.6-6.8,7.6c-4-0.1-6.2-2.7-6.3-7.7C289.7,331.2,289.7,326.3,289.7,321.3z"/>
		<path class="st0" d="M381.4,306.5c0,2.6-1.2,4.6-3.6,5.8c-2.4,1.1-5,1-6.7-0.8c-7.2-7.6-13.8-15.8-19.6-24.5
			c-1.6-2.5-1.7-6.1,1.2-8.6c3.4-2.9,5.6-2.7,9.3,1.5c4.9,5.6,9.5,11.6,14.2,17.4c1.1,1.4,2.2,2.8,3.3,4.2
			C380.7,303,381.4,304.6,381.4,306.5z"/>
		<path class="st0" d="M217.9,312.9c-3.1,0-5.1-1.6-6.3-3.9c-1.2-2.1-0.8-4.4,0.7-6.3c6.2-7.9,12.4-15.8,18.7-23.5
			c2.5-3.1,6.3-3.2,9.2-0.6c2.9,2.5,3.3,5.3,0.9,8.7c-6,8.1-12.3,15.8-18.8,23.5C221.1,312.1,219.7,313.2,217.9,312.9z"/>
	</g>
	<g>
		<path class="st0" d="M302.8,22.2c0,4.8,0.1,9.6,0,14.4c-0.1,4.8-2.5,7.6-6.4,7.7c-4,0.1-6.6-2.9-6.6-8c-0.1-9.5-0.1-18.9,0-28.4
			c0-5.3,2.2-7.9,6.5-7.9c4.4,0,6.5,2.3,6.6,7.8C302.9,12.6,302.8,17.4,302.8,22.2z"/>
		<path class="st0" d="M356.3,67c-4.5-0.2-7.3-4.6-5.5-9.1c0.9-2.3,2.5-4.1,4-5.9c4.7-5.8,9.4-11.7,14.2-17.4
			c3.5-4.1,8.1-3.9,11.5-0.1c1.6,1.7,1.6,3.2,0.6,5.2c-1.4,2.7-3.3,5-5.2,7.3c-4.3,5.4-8.6,10.8-12.9,16.2
			C361.3,65.3,359.3,67.1,356.3,67z"/>
		<path class="st0" d="M235.4,66.5c-1.7,0-3.5-0.9-4.9-2.7c-5.9-7.4-11.9-14.7-17.7-22.1c-2.8-3.5-2.3-6.8,1-9.4
			c3.1-2.5,6.1-2.2,8.9,1.2c6.3,7.6,12.5,15.4,18.6,23.1c1.4,1.8,2.4,3.7,0.9,6.1C240.5,65.2,238.7,66.6,235.4,66.5z"/>
	</g>
</g>
</svg>
